<?xml version="1.0" encoding="UTF-8" standalone="no"?>
<!DOCTYPE svg PUBLIC "-//W3C//DTD SVG 1.1//EN" "http://www.w3.org/Graphics/SVG/1.1/DTD/svg11.dtd">
<svg version="1.1" xmlns="http://www.w3.org/2000/svg" xmlns:xlink="http://www.w3.org/1999/xlink" preserveAspectRatio="xMidYMid meet" viewBox="81.63306540969529 81.32337638275737 470.6354531088232 468.8073049606752" width="466.64" height="464.81"><defs><path d="M180.08 178.27L263.74 178.27L263.74 261.93L180.08 261.93L180.08 178.27Z" id="a29Pflkeg7"></path><path d="M276.95 178.27L360.6 178.27L360.6 261.93L276.95 261.93L276.95 178.27Z" id="h2OXPqFod"></path><path d="M373.23 178.27L456.88 178.27L456.88 261.93L373.23 261.93L373.23 178.27Z" id="d1cQrXF3nD"></path><path d="M180.08 273.96L263.74 273.96L263.74 357.62L180.08 357.62L180.08 273.96Z" id="d68CL7YmtN"></path><path d="M373.23 273.96L456.88 273.96L456.88 357.62L373.23 357.62L373.23 273.96Z" id="h90iFIZ3U8"></path><path d="M276.95 273.96L360.6 273.96L360.6 357.62L276.95 357.62L276.95 273.96Z" id="a1VUXvfSze"></path><path d="M180.08 370.23L263.74 370.23L263.74 453.89L180.08 453.89L180.08 370.23Z" id="a2zVuLX01A"></path><path d="M372.65 370.23L456.31 370.23L456.31 453.89L372.65 453.89L372.65 370.23Z" id="b2DEYCRlLI"></path><path d="M276.95 370.23L360.6 370.23L360.6 453.89L276.95 453.89L276.95 370.23Z" id="bgr1JQ0Ze"></path><path d="M465.61 178.25L549.27 96.65L549.27 178.25L465.61 261.9L465.61 178.25Z" id="a3EG8KoaBP"></path><path d="M174.01 463.47L260.7 463.47L185.14 547.13L91.39 547.13L174.01 463.47Z" id="a6AE79NrhN"></path><path d="M465.61 273.67L549.27 192.07L549.27 273.67L465.61 357.33L465.61 273.67Z" id="b1ewsWbsv"></path><path d="M465.61 369.94L549.27 288.34L549.27 369.94L465.61 453.6L465.61 369.94Z" id="bC1DPovDO"></path><path d="M84.8 260.87L168.45 179.27L168.45 260.87L84.8 344.53L84.8 260.87Z" id="d9P4svY9u8"></path><path d="M82.63 356.56L166.29 274.96L166.29 356.56L82.63 440.22L82.63 356.56Z" id="e3paiAxslt"></path><path d="M82.63 452.83L166.29 371.23L166.29 452.83L82.63 536.49L82.63 452.83Z" id="aj6b7WBWg"></path><path d="M276.95 463.47L360.6 463.47L285.05 547.13L199.38 547.13L276.95 463.47Z" id="c37OJDmrGq"></path><path d="M373.23 463.47L456.88 463.47L381.33 547.13L295.66 547.13L373.23 463.47Z" id="b31LmSCQIj"></path><path d="M276.95 82.32L360.6 82.32L268.8 165.98L183.13 165.98L276.95 82.32Z" id="amW6I2Lg"></path><path d="M373.23 82.32L456.88 82.32L365.66 165.98L279.99 165.98L373.23 82.32Z" id="bZZC5O6Pr"></path><path d="M465.61 82.32L549.27 82.32L463.76 165.98L378.08 165.98L465.61 82.32Z" id="a8grSN8lwe"></path></defs><g><g><use xlink:href="#a29Pflkeg7" opacity="1" fill="#000000" fill-opacity="1"></use></g><g><use xlink:href="#h2OXPqFod" opacity="1" fill="#000000" fill-opacity="1"></use></g><g><use xlink:href="#d1cQrXF3nD" opacity="1" fill="#000000" fill-opacity="1"></use></g><g><use xlink:href="#d68CL7YmtN" opacity="1" fill="#000000" fill-opacity="1"></use></g><g><use xlink:href="#h90iFIZ3U8" opacity="1" fill="#000000" fill-opacity="1"></use></g><g><use xlink:href="#a1VUXvfSze" opacity="1" fill="#000000" fill-opacity="1"></use></g><g><use xlink:href="#a2zVuLX01A" opacity="1" fill="#000000" fill-opacity="1"></use></g><g><use xlink:href="#b2DEYCRlLI" opacity="1" fill="#000000" fill-opacity="1"></use></g><g><use xlink:href="#bgr1JQ0Ze" opacity="1" fill="#000000" fill-opacity="1"></use></g><g><use xlink:href="#a3EG8KoaBP" opacity="1" fill="#000000" fill-opacity="1"></use></g><g><use xlink:href="#a6AE79NrhN" opacity="1" fill="#000000" fill-opacity="1"></use></g><g><use xlink:href="#b1ewsWbsv" opacity="1" fill="#000000" fill-opacity="1"></use></g><g><use xlink:href="#bC1DPovDO" opacity="1" fill="#000000" fill-opacity="1"></use></g><g><use xlink:href="#d9P4svY9u8" opacity="1" fill="#000000" fill-opacity="1"></use></g><g><use xlink:href="#e3paiAxslt" opacity="1" fill="#000000" fill-opacity="1"></use></g><g><use xlink:href="#aj6b7WBWg" opacity="1" fill="#000000" fill-opacity="1"></use></g><g><use xlink:href="#c37OJDmrGq" opacity="1" fill="#000000" fill-opacity="1"></use></g><g><use xlink:href="#b31LmSCQIj" opacity="1" fill="#000000" fill-opacity="1"></use></g><g><use xlink:href="#amW6I2Lg" opacity="1" fill="#000000" fill-opacity="1"></use></g><g><use xlink:href="#bZZC5O6Pr" opacity="1" fill="#000000" fill-opacity="1"></use></g><g><use xlink:href="#a8grSN8lwe" opacity="1" fill="#000000" fill-opacity="1"></use></g></g></svg>